<?xml version="1.0" encoding="UTF-8" standalone="no"?>
<svg
   xmlns:dc="http://purl.org/dc/elements/1.1/"
   xmlns:cc="http://creativecommons.org/ns#"
   xmlns:rdf="http://www.w3.org/1999/02/22-rdf-syntax-ns#"
   xmlns:svg="http://www.w3.org/2000/svg"
   xmlns="http://www.w3.org/2000/svg"
   xmlns:sodipodi="http://sodipodi.sourceforge.net/DTD/sodipodi-0.dtd"
   xmlns:inkscape="http://www.inkscape.org/namespaces/inkscape"
   width="19.307182mm"
   height="6.3930669mm"
   viewBox="0 0 19.307182 6.3930669"
   version="1.1"
   id="svg8"
   inkscape:version="1.0.1 (3bc2e813f5, 2020-09-07)"
   sodipodi:docname="Twitch-small.svg">
  <defs
     id="defs2" />
  <sodipodi:namedview
     id="base"
     pagecolor="#ffffff"
     bordercolor="#666666"
     borderopacity="1.0"
     inkscape:pageopacity="0.0"
     inkscape:pageshadow="2"
     inkscape:zoom="1.4"
     inkscape:cx="70.726353"
     inkscape:cy="37.601493"
     inkscape:document-units="mm"
     inkscape:current-layer="layer1"
     inkscape:document-rotation="0"
     showgrid="false"
     fit-margin-top="0"
     fit-margin-left="0"
     fit-margin-right="0"
     fit-margin-bottom="0"
     inkscape:window-width="1267"
     inkscape:window-height="728"
     inkscape:window-x="83"
     inkscape:window-y="0"
     inkscape:window-maximized="0" />
  <metadata
     id="metadata5">
    <rdf:RDF>
      <cc:Work
         rdf:about="">
        <dc:format>image/svg+xml</dc:format>
        <dc:type
           rdf:resource="http://purl.org/dc/dcmitype/StillImage" />
        <dc:title></dc:title>
      </cc:Work>
    </rdf:RDF>
  </metadata>
  <g
     inkscape:label="Layer 1"
     inkscape:groupmode="layer"
     id="layer1"
     transform="translate(-45.398688,-69.051786)">
    <path
       style="fill:#e6e6e6;stroke-width:0.0161026"
       d="m 48.030421,75.424207 c -0.0094,-0.01074 -0.38261,-0.238838 -0.829285,-0.5069 L 46.389,74.429923 45.893844,73.936094 45.398688,73.442265 v -2.195031 -2.195029 h 1.035681 1.03568 l 0.50557,0.507232 0.505571,0.507233 h 2.267422 2.267419 l 0.01573,-0.0413 c 0.02134,-0.05613 0.02095,-0.940956 -3.79e-4,-0.940956 -0.0089,0 -0.01612,-0.0073 -0.01612,-0.0161 0,-0.01065 0.634715,-0.0161 1.871929,-0.01611 l 1.87193,-8e-6 v 0.503216 0.503214 l 0.487101,0.0042 0.487108,0.0042 v 0.239986 c 0,0.244841 0.0059,0.290929 0.03733,0.290929 0.0098,0 0.138124,-0.119563 0.28517,-0.265693 l 0.267364,-0.265694 h 0.554565 0.554571 l 0.49103,-0.49123 c 0.270067,-0.270176 0.487409,-0.496619 0.482977,-0.503208 -0.0046,-0.0066 0.462952,-0.01384 1.038624,-0.01613 l 1.046672,-0.0042 -0.0046,0.484757 c -0.0033,0.351404 3.79e-4,0.490973 0.01403,0.507359 0.01547,0.01866 0.123086,0.0226 0.616715,0.0226 h 0.597949 l 0.481965,0.482167 c 0.265086,0.265191 0.487858,0.478526 0.495058,0.474077 0.0072,-0.0044 0.01312,0.742318 0.01312,1.659483 0,1.106002 -0.0052,1.667573 -0.01619,1.667573 -0.02807,0 -1.626809,1.072994 -1.61555,1.084253 0.0059,0.0059 -0.238659,0.01074 -0.543469,0.01074 l -0.554199,1.1e-5 v -0.269494 c 0,-0.23602 -0.0033,-0.270121 -0.02617,-0.274552 -0.02918,-0.0057 -0.774536,0.518912 -0.759165,0.534286 0.0052,0.0054 -0.21791,0.0092 -0.496155,0.0085 -0.278238,-7.83e-4 -0.498641,-0.0043 -0.489784,-0.008 0.02591,-0.01086 0.0052,-0.525744 -0.02128,-0.534602 -0.02467,-0.0082 -0.553102,0.510299 -0.540629,0.530476 0.0046,0.0074 -0.395509,0.01342 -0.889039,0.01342 -0.493531,0 -0.892238,-0.0051 -0.886011,-0.01132 0.01664,-0.01662 -0.507792,-0.536173 -0.541177,-0.536173 -0.0156,0 -0.02839,0.0033 -0.02839,0.0073 0,0.004 -0.02232,0.114547 -0.04954,0.245565 -0.02728,0.13102 -0.05058,0.250898 -0.05176,0.266397 -0.002,0.02642 -0.05045,0.02818 -0.774341,0.02818 -0.424697,0 -0.767774,-0.0044 -0.76239,-0.0098 0.01449,-0.01446 -0.587564,-0.537237 -0.618979,-0.537485 -0.02187,-1.26e-4 -0.02865,0.02276 -0.03675,0.124584 -0.0052,0.06864 -0.0154,0.188111 -0.02213,0.265496 -0.008,0.09314 -0.0065,0.14306 0.0046,0.147678 0.0092,0.0039 -0.376835,0.0076 -0.857821,0.0082 -0.480986,7.84e-4 -0.871364,-0.0042 -0.8675,-0.01081 0.01188,-0.02048 -0.05045,-0.506702 -0.06714,-0.523364 -0.0086,-0.0086 -0.02369,-0.01072 -0.03348,-0.0046 -0.02656,0.01644 -0.43689,0.491886 -0.446831,0.517782 -0.0072,0.01878 -0.221623,0.02232 -1.35141,0.02232 -0.738566,0 -1.342845,-0.006 -1.342845,-0.01339 0,-0.0224 -0.510292,-0.217412 -0.539536,-0.206191 -0.02202,0.0085 -0.02584,0.02895 -0.0214,0.114965 l 0.0054,0.104679 -0.708515,-6.32e-4 c -0.5341,-5.05e-4 -0.712738,-0.0055 -0.725666,-0.02016 z m 0.02343,-1.402205 c 0.01308,-0.01576 0.01707,-0.193061 0.01405,-0.623977 l -0.0042,-0.60196 -0.49113,-0.008 -0.49113,-0.0081 V 72.25663 71.733295 l 0.477278,-0.0042 c 0.377462,-0.0034 0.481059,-0.0088 0.495354,-0.02604 0.01282,-0.01546 0.01685,-0.196614 0.01385,-0.62374 l -0.0042,-0.601961 -0.491131,-0.008 -0.49113,-0.008 -0.008,-0.49113 -0.0081,-0.49113 h -0.619951 -0.619952 l -0.0041,1.883821 -0.0041,1.883823 0.398487,0.398726 0.398486,0.398725 h 0.710691 c 0.581422,0 0.714014,-0.004 0.728963,-0.02202 z m 4.590356,-0.372223 0.395182,-0.394241 0.0046,-1.361502 c 0.0026,-0.929569 -0.0013,-1.371543 -0.01266,-1.393152 -0.01638,-0.03061 -0.03701,-0.03165 -0.628267,-0.03165 -0.336237,0 -0.613027,0.0018 -0.615096,0.004 -0.002,0.0022 -0.0075,0.522128 -0.01208,1.155363 l -0.0083,1.151339 h -0.185177 -0.185183 l -0.0083,-1.151339 c -0.0046,-0.633235 -0.01,-1.153149 -0.01207,-1.155363 -0.002,-0.0022 -0.282736,-0.004 -0.623711,-0.004 -0.340969,0 -0.621643,0.0018 -0.623709,0.004 -0.0021,0.0022 -0.0075,0.522128 -0.01208,1.155363 l -0.0083,1.151339 h -0.185499 -0.18518 l -0.008,-1.151339 -0.008,-1.151337 h -0.619948 -0.619952 l -0.0042,1.763237 c -0.0023,0.969781 -7.18e-4,1.772295 0.0035,1.783366 0.0061,0.01595 0.398455,0.02013 1.887482,0.02013 H 52.249 Z m 2.025646,0.380923 c 0.01606,-0.01018 0.01939,-0.377523 0.01612,-1.78312 l -0.0039,-1.770294 H 54.062121 53.44217 l -0.0039,1.761502 c -0.0033,1.288288 6.52e-4,1.767375 0.01403,1.783365 0.01469,0.0177 0.130546,0.02182 0.607948,0.02162 0.324391,-1.21e-4 0.598889,-0.006 0.609998,-0.01307 z m 2.659116,-0.0087 c 0.01305,-0.01576 0.0171,-0.193062 0.01403,-0.623977 l -0.0039,-0.60196 -0.491129,-0.008 -0.491135,-0.0081 V 72.25663 71.733295 l 0.477278,-0.0042 c 0.377462,-0.0034 0.481064,-0.0088 0.495358,-0.02604 0.01279,-0.01546 0.01684,-0.196613 0.01384,-0.62374 l -0.0039,-0.601961 -0.491135,-0.008 -0.491129,-0.008 -0.008,-0.49113 -0.008,-0.49113 h -0.619951 -0.619952 l -0.0039,1.891907 -0.0039,1.891909 0.391527,0.39064 0.391533,0.390639 h 0.717648 c 0.587303,0 0.720963,-0.004 0.735916,-0.02202 z m 3.091704,0 c 0.01305,-0.01576 0.0171,-0.193062 0.01403,-0.623977 l -0.0039,-0.60196 -0.708516,-0.008 -0.708516,-0.0081 -0.0046,-0.52736 -0.0046,-0.527362 h 0.698713 c 0.571293,0 0.702041,-0.004 0.716982,-0.02202 0.01305,-0.01576 0.0171,-0.193061 0.01403,-0.623975 l -0.0039,-0.60196 -0.957187,-0.0042 -0.957194,-0.0042 -0.374491,0.373256 c -0.205972,0.205291 -0.382272,0.392029 -0.391776,0.414974 -0.01181,0.02856 -0.01586,0.350411 -0.01286,1.020027 l 0.0046,0.978311 0.395176,0.394237 0.395189,0.394238 h 0.935335 c 0.771416,0 0.938539,-0.0039 0.95361,-0.02202 z m 1.657126,0.0027 c 0.01469,-0.01467 0.01932,-0.294197 0.01932,-1.159633 v -1.140311 l 0.471,0.0042 0.471006,0.0042 0.008,1.151337 0.008,1.151337 0.601957,0.0042 c 0.430917,0.003 0.608223,-9.79e-4 0.623979,-0.01405 0.01834,-0.01519 0.022,-0.250485 0.022,-1.396347 V 71.25171 l -0.389883,-0.391078 -0.389889,-0.391079 -0.709116,-0.0042 -0.709117,-0.0042 -0.0046,-0.473675 c -0.0026,-0.31666 -0.01018,-0.480796 -0.02213,-0.495156 -0.01429,-0.01721 -0.137549,-0.02148 -0.619136,-0.02148 -0.578022,0 -0.601956,0.0012 -0.61798,0.03115 -0.02324,0.04341 -0.02324,4.467445 0,4.510853 0.01599,0.02994 0.03994,0.03115 0.616727,0.03115 0.445244,0 0.605051,-0.005 0.61939,-0.01932 z M 54.681852,69.76875 v -0.289847 l -0.610827,-0.0042 c -0.477971,-0.0033 -0.613634,1.26e-4 -0.623731,0.0161 -0.0156,0.02462 -0.01795,0.549864 -0.0026,0.565319 0.0059,0.006 0.286795,0.009 0.623979,0.0067 l 0.613053,-0.0042 z"
       id="path26" />
  </g>
</svg>
