<?xml version="1.0" encoding="UTF-8" standalone="no"?>
<svg
   xmlns:dc="http://purl.org/dc/elements/1.1/"
   xmlns:cc="http://creativecommons.org/ns#"
   xmlns:rdf="http://www.w3.org/1999/02/22-rdf-syntax-ns#"
   xmlns:svg="http://www.w3.org/2000/svg"
   xmlns="http://www.w3.org/2000/svg"
   xmlns:sodipodi="http://sodipodi.sourceforge.net/DTD/sodipodi-0.dtd"
   xmlns:inkscape="http://www.inkscape.org/namespaces/inkscape"
   width="92.543663mm"
   height="20.511627mm"
   viewBox="0 0 92.543663 20.511627"
   version="1.1"
   id="svg8"
   sodipodi:docname="yt-white.svg"
   inkscape:version="1.0.1 (3bc2e813f5, 2020-09-07)">
  <defs
     id="defs2">
    <clipPath
       clipPathUnits="userSpaceOnUse"
       id="clipPath98">
      <path
         d="M 0,501 H 1920 V 0 H 0 Z"
         id="path96" />
    </clipPath>
  </defs>
  <sodipodi:namedview
     id="base"
     pagecolor="#ffffff"
     bordercolor="#666666"
     borderopacity="1.0"
     inkscape:pageopacity="0.0"
     inkscape:pageshadow="2"
     inkscape:zoom="3.959798"
     inkscape:cx="84.898122"
     inkscape:cy="39.059031"
     inkscape:document-units="mm"
     inkscape:current-layer="g94"
     inkscape:document-rotation="0"
     showgrid="false"
     inkscape:window-width="1267"
     inkscape:window-height="696"
     inkscape:window-x="1946"
     inkscape:window-y="0"
     inkscape:window-maximized="0"
     fit-margin-top="0"
     fit-margin-left="0"
     fit-margin-right="0"
     fit-margin-bottom="0" />
  <metadata
     id="metadata5">
    <rdf:RDF>
      <cc:Work
         rdf:about="">
        <dc:format>image/svg+xml</dc:format>
        <dc:type
           rdf:resource="http://purl.org/dc/dcmitype/StillImage" />
        <dc:title></dc:title>
      </cc:Work>
    </rdf:RDF>
  </metadata>
  <g
     inkscape:label="Layer 1"
     inkscape:groupmode="layer"
     id="layer1"
     transform="translate(-52.61789,-120.70626)">
    <g
       id="g94"
       clip-path="url(#clipPath98)"
       transform="matrix(0.05199082,0,0,-0.05199082,50.74621,144.61354)">
      <g
         id="g100"
         transform="translate(555.1592,65.3125)"
         style="fill:#f9f9f9">
        <path
           d="m 0,0 h -476.702 c -23.448,0 -42.457,19.009 -42.457,42.458 v 309.609 c 0,23.449 19.009,42.457 42.457,42.457 H 0 c 23.449,0 42.458,-19.008 42.458,-42.457 V 42.458 C 42.458,19.009 23.449,0 0,0"
           style="fill:#f9f9f9;fill-opacity:1;fill-rule:nonzero;stroke:none"
           id="path102" />
      </g>
      <g
         id="g104"
         transform="translate(258.79,174.3877)"
         style="fill:#ff0000">
        <path
           d="M 0,0 V 169.413 L 164.772,86.558 Z"
           style="fill:#ff0000;fill-opacity:1;fill-rule:nonzero;stroke:none"
           id="path106" />
      </g>
      <g
         id="g108"
         transform="translate(776.313,93.1621)">
        <path
           d="m 0,0 h -54.069 c -0.36,3.146 -0.945,6.076 -0.984,9.013 -0.128,9.667 -0.649,19.38 0.037,29 3.485,48.875 -4.572,95.861 -19.27,142.497 -14.863,47.161 -26.747,95.261 -39.908,142.957 -1.419,5.145 -2.654,10.341 -4.342,16.95 17.484,0 33.644,0.357 49.755,-0.374 2.51,-0.113 6.289,-4.873 6.96,-8.021 10.949,-51.412 21.49,-102.911 32.142,-154.386 0.272,-1.314 0.752,-2.584 2.983,-3.979 2.085,10.423 4.045,20.872 6.277,31.262 9.014,41.955 18.294,83.852 27.011,125.868 1.553,7.483 4.429,10.163 12.172,9.831 14.618,-0.627 29.282,-0.181 45.468,-0.181 C 57.395,315.747 50.97,292.359 44.439,269.002 30.7,219.861 16.781,170.771 3.268,121.568 1.252,114.228 0.233,106.399 0.138,98.78 -0.219,70.163 -0.002,41.54 0,12.919 Z"
           style="fill:#000000;fill-opacity:1;fill-rule:nonzero;stroke:none"
           id="path110" />
      </g>
      <g
         id="g112"
         transform="translate(924.8398,148.8594)">
        <path
           d="m 0,0 c 0,-10.895 -8.832,-19.727 -19.727,-19.727 -10.894,0 -19.726,8.832 -19.726,19.727 v 139.244 c 0,10.894 8.832,19.726 19.726,19.726 C -8.832,158.97 0,150.138 0,139.244 Z m -19.727,200.743 v 0 c -40.373,0 -73.103,-32.729 -73.103,-73.103 V 11.604 c 0,-40.375 32.73,-73.104 73.103,-73.104 40.374,0 73.104,32.729 73.104,73.104 V 127.64 c 0,40.374 -32.73,73.103 -73.104,73.103"
           style="fill:#000000;fill-opacity:1;fill-rule:nonzero;stroke:none"
           id="path114" />
      </g>
      <g
         id="g116"
         transform="translate(1398.2686,343.8003)">
        <path
           d="m 0,0 v -200.125 l 0.064,-0.141 c -0.574,-1.084 -1.323,-2.365 -2.384,-3.958 -6.473,-9.709 -15.068,-11.229 -18.567,-11.604 -6.444,-0.691 -11.858,-0.661 -16.245,4.642 -0.115,0.139 -0.256,0.36 -0.411,0.633 -1.294,2.272 -1.909,4.868 -1.909,7.482 V 0 h -58.019 v -141.564 -58.591 -5.321 c 0,-6.583 1.251,-13.107 3.736,-19.204 3.23,-7.929 7.921,-15.862 14.83,-21.318 17.468,-13.794 41.123,-6.87 48.735,-4.64 12.345,3.613 20.403,9.866 25.528,13.924 4.259,3.372 9.608,7.621 13.925,13.228 v -27.152 H 55.697 V 0 Z"
           style="fill:#000000;fill-opacity:1;fill-rule:nonzero;stroke:none"
           id="path118" />
      </g>
      <g
         id="g120"
         transform="translate(1105.8564,341.48)">
        <path
           d="m 0,0 v -200.126 l 0.064,-0.14 c -0.574,-1.084 -1.323,-2.366 -2.384,-3.958 -6.473,-9.709 -15.067,-11.229 -18.567,-11.604 -6.444,-0.691 -11.858,-0.661 -16.245,4.641 -0.114,0.14 -0.256,0.361 -0.411,0.634 -1.294,2.271 -1.909,4.867 -1.909,7.481 V 0 h -58.019 v -141.565 -58.59 -5.321 c 0,-6.583 1.251,-13.107 3.736,-19.204 3.23,-7.929 7.922,-15.862 14.831,-21.318 17.467,-13.794 41.122,-6.87 48.735,-4.641 12.345,3.614 20.402,9.867 25.527,13.925 4.26,3.371 9.608,7.62 13.925,13.228 v -27.153 H 55.697 V 0 Z"
           style="fill:#000000;fill-opacity:1;fill-rule:nonzero;stroke:none"
           id="path122" />
      </g>
      <g
         id="g124"
         transform="translate(1317.043,434.3091)">
        <path
           d="m 0,0 h -167.093 v -44.094 h 55.698 v -297.053 h 55.698 V -44.094 H 0 Z"
           style="fill:#000000;fill-opacity:1;fill-rule:nonzero;stroke:none"
           id="path126" />
      </g>
      <g
         id="g128"
         transform="translate(1586.248,163.9443)">
        <path
           d="m 0,0 c 0,-13.458 -10.91,-33.651 -24.368,-33.651 -9.761,0 -18.157,4.535 -22.047,12.152 V 123.45 c 3.89,10.971 12.286,21.595 22.047,21.595 C -10.91,145.045 0,124.853 0,111.395 Z m 34.608,171.09 c -26.128,23.659 -60.27,11.73 -81.023,-11.777 v 124.976 h -55.697 V -70.782 h 46.414 l 6.381,21.446 c 7.667,-9.305 18.054,-16.72 32.171,-21.287 66.199,-21.561 72.843,65.867 72.843,109.162 0,37.554 9.317,105.02 -21.089,132.551"
           style="fill:#000000;fill-opacity:1;fill-rule:nonzero;stroke:none"
           id="path130" />
      </g>
      <g
         id="g132"
         transform="translate(1741.7363,311.3101)">
        <path
           d="m 0,0 c 11.536,0 20.887,-9.351 20.887,-20.886 v -55.697 h -41.774 v 55.697 C -20.887,-9.351 -11.535,0 0,0 m 20.887,-113.715 h 51.056 2.321 v 57.327 C 71.943,13.925 45.9,37.132 10.913,37.132 h -24.145 c -34.989,0 -63.352,-39.452 -63.352,-93.52 v -79.844 c 0,-49.426 28.363,-86.558 63.352,-86.558 h 24.145 c 33.865,0 61.524,26.094 63.262,78.905 H 20.887 v -20.887 c 0,-11.535 -9.351,-20.886 -20.887,-20.886 -11.535,0 -20.887,9.351 -20.887,20.886 v 51.057 z"
           style="fill:#000000;fill-opacity:1;fill-rule:nonzero;stroke:none"
           id="path134" />
      </g>
    </g>
  </g>
</svg>
