<svg id="g10" xmlns="http://www.w3.org/2000/svg" width="32.682" height="32.701" viewBox="0 0 32.682 32.701">
  <g id="g8">
    <g id="g6">
      <path id="path2" d="M3.171,3.178a.527.527,0,0,0,0,.763L17.877,18.647a.526.526,0,0,0,.762,0,.527.527,0,0,0,0-.763L3.933,3.178a.526.526,0,0,0-.762,0Z" transform="translate(1.35 1.363)" fill="#ebebeb"/>
      <path id="path4" d="M30.518,5.913c.054-.054.109-.109.109-.163L32.588.738a.5.5,0,0,0-.109-.6.615.615,0,0,0-.6-.163L26.868,1.937c-.054,0-.109.054-.163.109L16.329,12.422,5.953,2.046a.328.328,0,0,0-.218-.054L.724.03a.5.5,0,0,0-.6.109.594.594,0,0,0-.109.6L1.977,5.749c0,.054.054.109.109.163l10.4,10.4L10.135,18.67a1.57,1.57,0,0,0-1.3-.72,1.525,1.525,0,0,0-1.307.545,1.681,1.681,0,0,0-.381,1.416,7.125,7.125,0,0,0,.921,2.347L2.514,27.816a1.284,1.284,0,0,0-1.681.1l-.49.49a1.276,1.276,0,0,0-.381.926,1.314,1.314,0,0,0,.381.926l2.015,2.015a1.276,1.276,0,0,0,.926.381,1.545,1.545,0,0,0,.926-.381l.49-.49a1.276,1.276,0,0,0,.381-.926,1.315,1.315,0,0,0-.234-.749l5.505-5.554a7.078,7.078,0,0,0,2.463.966h.272a1.275,1.275,0,0,0,.98-.436,1.74,1.74,0,0,0,.6-1.307,1.644,1.644,0,0,0-.623-1.284l2.311-2.311,2.289,2.289a1.6,1.6,0,0,0-.764,1.36,1.74,1.74,0,0,0,.6,1.307,1.438,1.438,0,0,0,1.035.381c.109,0,.163-.054.272,0a7.078,7.078,0,0,0,2.465-.967l5.524,5.524a1.276,1.276,0,0,0-.255.78,1.314,1.314,0,0,0,.381.926l.49.49a1.249,1.249,0,0,0,1.8,0l2.015-2.015a1.276,1.276,0,0,0,.381-.926,1.314,1.314,0,0,0-.381-.926l-.49-.49a1.283,1.283,0,0,0-1.649-.124L24.5,22.231a7.385,7.385,0,0,0,.893-2.321,1.822,1.822,0,0,0-.381-1.416,1.689,1.689,0,0,0-1.307-.545,1.543,1.543,0,0,0-1.238.614L20.2,16.288Zm-3.1-2.941L31.171,1.5,29.7,5.259,19.379,15.472l-.735-.735,9.477-9.477a.539.539,0,1,0-.763-.763l-9.477,9.477-.79-.79ZM3.938,31.022l-.49.49a.243.243,0,0,1-.272,0L1.106,29.5a.2.2,0,0,1-.054-.163c0-.054,0-.109.109-.163l.49-.49a.247.247,0,0,1,.272,0l.1.1a.566.566,0,0,0,.119.174l1.525,1.525a.556.556,0,0,0,.181.127l.091.091a.272.272,0,0,1,0,.327Zm.128-1.707-.773-.752,5.424-5.424q.163.189.341.367l.054.054c.119.119.242.233.366.342Zm9.349-5.047a.526.526,0,0,1-.436.109,6.14,6.14,0,0,1-3.1-1.634,5.853,5.853,0,0,1-1.58-3.1.522.522,0,0,1,.109-.49.657.657,0,0,1,.436-.163.579.579,0,0,1,.49.436q.016.09.035.179a.417.417,0,0,0,.019.147,5.375,5.375,0,0,0,1.253,2.233,4.877,4.877,0,0,0,2.179,1.253h.125c.085.021.171.039.256.054a.53.53,0,0,1,.436.545.673.673,0,0,1-.218.436Zm-.6-2.233a3.844,3.844,0,0,1-1.416-.871,3.449,3.449,0,0,1-.871-1.416l2.7-2.7,2.288,2.288Zm18.029,6.59a.2.2,0,0,1,.163.054l.49.49a.2.2,0,0,1,.054.163s0,.054-.109.163l-2.015,2.015a.247.247,0,0,1-.272,0l-.49-.49a.272.272,0,0,1,0-.327l.107-.107a.558.558,0,0,0,.166-.111l1.525-1.525a.566.566,0,0,0,.119-.174l.1-.1a.2.2,0,0,1,.163-.055Zm-1.552-.082-.763.763-5.4-5.4q.187-.164.366-.342l.054-.054q.172-.182.331-.377Zm-5.474-9.5a.5.5,0,0,1,.381.163.556.556,0,0,1,.109.49,6.107,6.107,0,0,1-1.58,3.05h0a5.928,5.928,0,0,1-3.1,1.634.47.47,0,0,1-.436-.109.5.5,0,0,1-.218-.436.579.579,0,0,1,.436-.49,5.127,5.127,0,0,0,2.56-1.362l.04-.041.015-.013a4.354,4.354,0,0,0,1.253-2.233.9.9,0,0,0-.014-.148c0-.023.01-.046.014-.07a.53.53,0,0,1,.545-.436Zm-2.643,2.151-.045.043a3.806,3.806,0,0,1-1.4.856L2.9,5.259,1.487,1.446,5.245,2.917,22.021,19.8A3.855,3.855,0,0,1,21.176,21.191Z" transform="translate(0.038 0.045)" fill="#ebebeb"/>
    </g>
  </g>
</svg>
