<svg id="Discord__software_-Logo.wine" data-name="Discord_(software)-Logo.wine" xmlns="http://www.w3.org/2000/svg" width="119.16" height="32.565" viewBox="0 0 119.16 32.565">
  <path id="Trazado_6" data-name="Trazado 6" d="M29.616,30.845a1.812,1.812,0,1,0,1.675,1.806A1.735,1.735,0,0,0,29.616,30.845Zm-5.994,0A1.812,1.812,0,1,0,25.3,32.651,1.735,1.735,0,0,0,23.622,30.845Z" transform="translate(-12.225 -17.181)" fill="#7289da"/>
  <path id="Trazado_7" data-name="Trazado 7" d="M25.372,0H3.367A3.371,3.371,0,0,0,0,3.367V25.372a3.371,3.371,0,0,0,3.367,3.367H21.989l-.87-3.005,2.1,1.938,1.987,1.823,3.547,3.071V3.367A3.4,3.4,0,0,0,25.372,0ZM19.033,21.267s-.591-.706-1.084-1.314a5.207,5.207,0,0,0,2.972-1.938,9.4,9.4,0,0,1-1.889.969,11.777,11.777,0,0,1-2.381.706,11.5,11.5,0,0,1-4.253-.016,12.5,12.5,0,0,1-2.414-.706,9.624,9.624,0,0,1-1.2-.558c-.049-.033-.1-.049-.148-.082-.033-.016-.049-.033-.066-.033-.3-.164-.46-.279-.46-.279a5.133,5.133,0,0,0,2.874,1.921c-.493.624-1.1,1.347-1.1,1.347A5.963,5.963,0,0,1,4.877,18.8,21.682,21.682,0,0,1,7.242,9.311,8.138,8.138,0,0,1,11.84,7.6L12,7.8A10.775,10.775,0,0,0,7.7,9.935s.361-.2.969-.46A12.867,12.867,0,0,1,12.4,8.441a1.618,1.618,0,0,1,.279-.033A13.9,13.9,0,0,1,16,8.375a13.652,13.652,0,0,1,4.943,1.56,10.784,10.784,0,0,0-4.089-2.069l.23-.263a8.1,8.1,0,0,1,4.6,1.708A21.682,21.682,0,0,1,24.042,18.8,6.019,6.019,0,0,1,19.033,21.267Zm24.8-14.238H38.379v6.125l3.629,3.268V10.477h1.938c1.232,0,1.839.591,1.839,1.544V16.57c0,.952-.575,1.593-1.839,1.593H38.362v3.465h5.452c2.923.016,5.666-1.445,5.666-4.8V11.939c.016-3.416-2.726-4.91-5.649-4.91Zm28.575,9.8V11.808c0-1.806,3.252-2.217,4.237-.411l3.005-1.215a5.407,5.407,0,0,0-5.124-3.35c-2.923,0-5.813,1.691-5.813,4.976v5.025c0,3.317,2.89,4.976,5.748,4.976a5.864,5.864,0,0,0,5.255-3.268l-3.219-1.478c-.788,2.02-4.089,1.527-4.089-.23ZM62.47,12.5c-1.133-.246-1.889-.657-1.938-1.363.066-1.691,2.677-1.757,4.2-.131l2.414-1.856a5.99,5.99,0,0,0-4.976-2.332c-2.677,0-5.272,1.511-5.272,4.368,0,2.775,2.135,4.27,4.483,4.631,1.2.164,2.529.64,2.5,1.462-.1,1.56-3.317,1.478-4.779-.3l-2.332,2.184a6.393,6.393,0,0,0,4.96,2.644c2.677,0,5.649-1.544,5.764-4.368.164-3.564-2.43-4.467-5.025-4.943Zm-11,9.114h3.679V7.029H51.467ZM113.494,7.029h-5.452v6.125l3.629,3.268V10.477h1.938c1.232,0,1.839.591,1.839,1.544V16.57c0,.952-.575,1.593-1.839,1.593h-5.584v3.465h5.469c2.923.016,5.666-1.445,5.666-4.8V11.939c0-3.416-2.743-4.91-5.666-4.91Zm-26.752-.2c-3.022,0-6.027,1.642-6.027,5.009v4.976c0,3.334,3.022,5.009,6.06,5.009,3.022,0,6.027-1.675,6.027-5.009V11.84C92.8,8.49,89.764,6.832,86.742,6.832Zm2.365,9.985c0,1.051-1.182,1.593-2.348,1.593-1.182,0-2.365-.509-2.365-1.593V11.84c0-1.067,1.15-1.642,2.3-1.642,1.2,0,2.414.509,2.414,1.642Zm16.9-4.976c-.082-3.416-2.414-4.8-5.419-4.8h-5.83V21.628h3.728V17h.657l3.383,4.631h4.6l-3.974-5.009C104.905,16.061,106.006,14.534,106.006,11.84Zm-5.354,1.971H98.484V10.477h2.168a1.668,1.668,0,1,1,0,3.334Z" fill="#7289da"/>
</svg>
