<svg id="g46" xmlns="http://www.w3.org/2000/svg" width="17.194" height="17.194" viewBox="0 0 17.194 17.194">
  <g id="g44" transform="translate(0)">
    <g id="g42">
      <path id="path2" d="M16.875,7.424h-.286V3.412L17.1,1.883a.286.286,0,0,0,.063-.169.173.173,0,0,0,0-.065V.259a.271.271,0,0,0-.286-.287H15.73a.271.271,0,0,0-.286.287V1.406h-.859V.259A.271.271,0,0,0,14.3-.027H13.151a.271.271,0,0,0-.286.287V1.406h-.859V.259a.271.271,0,0,0-.286-.287H10.573a.271.271,0,0,0-.286.287v1.39a.173.173,0,0,0,0,.065.286.286,0,0,0,.063.169l.509,1.529h0V7.424h-.286a.271.271,0,0,0-.286.287V8.856H9.427V7.71a.271.271,0,0,0-.286-.287H7.995a.271.271,0,0,0-.286.287V8.856H6.849V7.71a.271.271,0,0,0-.286-.287H6.276V3.412h0l.509-1.529a.286.286,0,0,0,.063-.169.173.173,0,0,0,0-.065V.259a.271.271,0,0,0-.286-.287H5.416A.271.271,0,0,0,5.13.259V1.406H4.27V.259a.271.271,0,0,0-.286-.287H2.838a.271.271,0,0,0-.286.287V1.406H1.692V.259a.271.271,0,0,0-.286-.287H.26A.271.271,0,0,0-.027.259v1.39a.173.173,0,0,0,0,.065.286.286,0,0,0,.063.169L.546,3.412h0V7.424H.26a.271.271,0,0,0-.286.287V9.1a.225.225,0,0,0,0,.081.286.286,0,0,0,.048.132l.809,2.157V16.88a.271.271,0,0,0,.286.287h14.9a.271.271,0,0,0,.286-.287V11.445l.788-2.1a.289.289,0,0,0,.071-.2V7.71A.271.271,0,0,0,16.875,7.424ZM16.589,8v.86h-.573V8h.573ZM10.974,1.979h5.5L16.1,3.125H11.346ZM16.016.546h.573v.86h-.573Zm-2.578,0h.573v.86h-.573Zm-2.578,0h.573v.86h-.573ZM11.432,3.7h4.584V7.424H15.73a.271.271,0,0,0-.286.287V8.856h-.859V7.71a.271.271,0,0,0-.286-.287H13.151a.271.271,0,0,0-.286.287V8.856h-.859V7.71a.271.271,0,0,0-.286-.287h-.286V3.7Zm2.578,5.158h-.573V8h.573ZM10.859,8h.573v.86h-.573V8ZM8.281,8h.573v.86H8.281ZM6.276,8v.86H5.7V8h.573ZM.661,1.979h5.5L5.789,3.125H1.033ZM5.7.546h.573v.86H5.7Zm-2.578,0H3.7v.86H3.124ZM.546.546h.573v.86H.546ZM1.119,3.7H5.7V7.424H5.416a.271.271,0,0,0-.286.287V8.856H4.27V7.71a.271.271,0,0,0-.286-.287H2.838a.271.271,0,0,0-.286.287V8.856H1.692V7.71a.271.271,0,0,0-.286-.287H1.119ZM3.7,8.856H3.124V8H3.7v.86ZM.546,8h.573v.86H.546Zm7.735,8.6V14.588a.286.286,0,1,1,.573,0v2.006Zm1.146,0V14.588a.859.859,0,1,0-1.719,0v2.006H7.135V14.588a1.432,1.432,0,1,1,2.865,0v2.006Zm6.3,0H10.573V14.588a2.005,2.005,0,1,0-4.011,0v2.006H1.406V11.722H15.73Zm.086-5.445H1.32L.661,9.43H16.446Z" transform="translate(0.029 0.027)" fill="#ebebeb"/>
      <path id="path4" d="M7.485,8.769H4.605a.36.36,0,1,0,0,.72h2.88a.36.36,0,1,0,0-.72Z" transform="translate(0.378 1.173)" fill="#ebebeb"/>
      <path id="path6" d="M11.506,8.769H8.626a.36.36,0,0,0,0,.72h2.88a.36.36,0,0,0,0-.72Z" transform="translate(0.705 1.173)" fill="#ebebeb"/>
      <path id="path8" d="M7.621,8.769a.36.36,0,1,0,.36.36.34.34,0,0,0-.36-.36Z" transform="translate(0.976 1.173)" fill="#ebebeb"/>
      <path id="path10" d="M13.367,8.769h-.72a.36.36,0,1,0,0,.72h.72a.36.36,0,0,0,0-.72Z" transform="translate(0.943 1.173)" fill="#ebebeb"/>
      <path id="path12" d="M11.642,8.769a.36.36,0,1,0,.36.36A.34.34,0,0,0,11.642,8.769Z" transform="translate(1.498 1.173)" fill="#ebebeb"/>
      <path id="path14" d="M2.092,11.75h.72a.36.36,0,0,0,0-.72h-.72a.36.36,0,0,0,0,.72Z" transform="translate(0.792 1.467)" fill="#ebebeb"/>
      <path id="path16" d="M4.605,11.75h.36a.36.36,0,0,0,0-.72h-.36a.36.36,0,0,0,0,.72Z" transform="translate(0.562 1.467)" fill="#ebebeb"/>
      <path id="path18" d="M3.6,11.75a.36.36,0,0,0,0-.72.36.36,0,0,0,0,.72Z" transform="translate(0.454 1.467)" fill="#ebebeb"/>
      <path id="path20" d="M2.092,14.012h2.16a.36.36,0,0,0,0-.72H2.092a.36.36,0,1,0,0,.72Z" transform="translate(0.792 1.382)" fill="#ebebeb"/>
      <path id="path22" d="M4.605,14.012h.36a.36.36,0,0,0,0-.72h-.36a.36.36,0,1,0,0,.72Z" transform="translate(0.562 1.382)" fill="#ebebeb"/>
      <path id="path24" d="M11.642,11.75H13.8a.36.36,0,0,0,0-.72h-2.16a.36.36,0,1,0,0,.72Z" transform="translate(0.508 1.467)" fill="#ebebeb"/>
      <path id="path26" d="M10.385,11.75h.36a.36.36,0,0,0,0-.72h-.36a.36.36,0,1,0,0,.72Z" transform="translate(1.282 1.467)" fill="#ebebeb"/>
      <path id="path28" d="M10.385,14.012h.36a.36.36,0,0,0,0-.72h-.36a.36.36,0,1,0,0,.72Z" transform="translate(1.282 1.382)" fill="#ebebeb"/>
      <path id="path30" d="M13.367,13.292h-.72a.36.36,0,1,0,0,.72h.72a.36.36,0,0,0,0-.72Z" transform="translate(0.943 1.382)" fill="#ebebeb"/>
      <path id="path32" d="M11.642,14.012a.36.36,0,1,0-.36-.36A.34.34,0,0,0,11.642,14.012Z" transform="translate(1.498 1.382)" fill="#ebebeb"/>
      <path id="path34" d="M2.812,8.769h-.72a.36.36,0,1,0,0,.72h.72a.36.36,0,1,0,0-.72Z" transform="translate(0.792 1.173)" fill="#ebebeb"/>
      <path id="path36" d="M3.6,8.769a.36.36,0,1,0,0,.72.36.36,0,1,0,0-.72Z" transform="translate(0.454 1.173)" fill="#ebebeb"/>
      <path id="path38" d="M2.595,6.983h1.44a.34.34,0,0,0,.36-.36v-1.8a1.061,1.061,0,0,0-1.08-1.08,1.061,1.061,0,0,0-1.08,1.08v1.8A.34.34,0,0,0,2.595,6.983Zm.36-2.16a.34.34,0,0,1,.36-.36.34.34,0,0,1,.36.36v1.44h-.72Z" transform="translate(0.273 0.362)" fill="#ebebeb"/>
      <path id="path40" d="M11.642,6.983h1.44a.34.34,0,0,0,.36-.36v-1.8a1.08,1.08,0,0,0-2.16,0v1.8a.34.34,0,0,0,.36.36ZM12,4.823a.36.36,0,1,1,.72,0v1.44H12V4.823Z" transform="translate(1.245 0.362)" fill="#ebebeb"/>
    </g>
  </g>
</svg>
