<svg id="g10" xmlns="http://www.w3.org/2000/svg" width="16.194" height="16.194" viewBox="0 0 16.194 16.194">
  <g id="g8" transform="translate(0 0)">
    <g id="g6">
      <path id="path2" d="M13.894,4.583a.813.813,0,0,0,.575-.764.827.827,0,0,0-.671-.792l1.138-1.4a.762.762,0,0,0,.156-.439V1.13A1.215,1.215,0,0,0,14.251.088a1.685,1.685,0,0,0-1.495.137A3.075,3.075,0,0,1,11.043.8,2.448,2.448,0,0,1,9.828.5,2.01,2.01,0,0,0,7.9.5,2.448,2.448,0,0,1,6.683.8,3.075,3.075,0,0,1,4.97.225,1.685,1.685,0,0,0,3.476.088a1.337,1.337,0,0,0-.841,1.07v.027a.762.762,0,0,0,.156.439l1.138,1.4a.827.827,0,0,0-.671.792.812.812,0,0,0,.565.76A10.926,10.926,0,0,0,.766,12.3v.549a2.669,2.669,0,0,0,1.806,2.47,18.242,18.242,0,0,0,6.291.851,19.038,19.038,0,0,0,6.291-.823,2.724,2.724,0,0,0,1.806-2.47v-.549A10.994,10.994,0,0,0,13.894,4.583ZM3.258,1.213V1.185a.825.825,0,0,1,.5-.6A.914.914,0,0,1,4.6.664a3.711,3.711,0,0,0,2.086.686A3.228,3.228,0,0,0,8.24.966a1.26,1.26,0,0,1,1.246,0,3.228,3.228,0,0,0,1.557.384A3.711,3.711,0,0,0,13.13.664.913.913,0,0,1,13.97.582a.743.743,0,0,1,.5.6v.027a.093.093,0,0,1-.031.082L13.067,3H4.659L3.289,1.3A.093.093,0,0,1,3.258,1.213Zm.934,2.332h9.343a.277.277,0,1,1,0,.549h-.156l-.031-.027H4.379l-.031.027H4.192a.277.277,0,1,1,0-.549Zm12.145,9.33A2.116,2.116,0,0,1,14.9,14.823a18.1,18.1,0,0,1-6.042.8,18.1,18.1,0,0,1-6.042-.8,2.116,2.116,0,0,1-1.433-1.948v-.549A10.553,10.553,0,0,1,4.628,4.643H8.262a3.8,3.8,0,0,0-.614,1.921,4.463,4.463,0,0,1-1.183,2.3.246.246,0,0,0,.031.384.364.364,0,0,0,.187.055.3.3,0,0,0,.249-.11A4.968,4.968,0,0,0,8.24,6.564,3.2,3.2,0,0,1,8.874,4.8a3.294,3.294,0,0,1,.612,1.763A1.584,1.584,0,0,0,10.638,8.21h.093a.377.377,0,0,0,.311-.192.3.3,0,0,0-.218-.329,1.12,1.12,0,0,1-.716-1.125A3.8,3.8,0,0,0,9.5,4.643h3.6a10.553,10.553,0,0,1,3.239,7.683v.549Z" transform="translate(-0.766 0.026)" fill="#fff"/>
      <path id="path4" d="M7.238,8.132a1.041,1.041,0,0,0-.981.707,1.031,1.031,0,0,0-.474,0,1.027,1.027,0,0,0-.809-.376,1.045,1.045,0,1,0,0,2.09.856.856,0,0,0,.241-.031,1.043,1.043,0,0,0,1.8-.343,1.1,1.1,0,0,0,.226.026A1.033,1.033,0,0,0,8.283,9.177,1.048,1.048,0,0,0,7.238,8.132ZM5.026,10.2a.7.7,0,1,1-.052-1.394.782.782,0,0,1,.47.174l-.051.036-.036.028h0a1.031,1.031,0,0,0-.317.445l0,.008c-.006.015-.011.031-.016.047s-.009.03-.013.045l0,.021c0,.012-.006.025-.008.038l0,.021q0,.019-.006.039l0,.021c0,.014,0,.028,0,.042s0,.012,0,.018,0,.04,0,.06A1.123,1.123,0,0,0,5.026,10.2Zm.993.348a.7.7,0,0,1-.55-.27l-.042-.059,0,0-.005-.009a.694.694,0,0,1-.066-.146v0l-.007-.025a.735.735,0,0,1-.017-.086h0c0-.014,0-.029,0-.043V9.9c0-.015,0-.03,0-.044s0-.031,0-.046,0-.013,0-.019,0-.014,0-.021a.693.693,0,0,1,.126-.321.766.766,0,0,1,.279-.228A.69.69,0,0,1,6.2,9.184l.078.062a.662.662,0,0,1,.418.627v.035l-.017.157h0a.7.7,0,0,1-.664.487Zm1.219-.7a.592.592,0,0,1-.174-.017,1.031,1.031,0,0,0-.488-.871.675.675,0,0,1,.662-.505.7.7,0,1,1,0,1.394Z" transform="translate(2.21 4.073)" fill="#fff"/>
    </g>
  </g>
</svg>
