<svg id="g6" xmlns="http://www.w3.org/2000/svg" width="20.215" height="20.215" viewBox="0 0 20.215 20.215">
  <g id="g4" transform="translate(0 0)">
    <path id="path2" d="M19.806,14.607h-2.02V13.561H18.8a.6.6,0,0,0,.3-.139c1.515-2.335,1.346-3.206,0-5.611a.351.351,0,0,0-.3-.174h-1.01v-.7a.337.337,0,1,0-.673,0v.7H16.1a.351.351,0,0,0-.3.174.326.326,0,0,0,0,.349c1.178,2.231,1.38,2.719,0,4.879a.326.326,0,0,0,0,.349.351.351,0,0,0,.3.174h1.01v1.046H14.757a.324.324,0,0,0-.337.349A1.01,1.01,0,0,1,13.411,16h-2.02V13.909h1.683a.607.607,0,0,0,.236-.07,6.521,6.521,0,0,0,1.784-4.566A5.972,5.972,0,0,0,13.31,4.952a.3.3,0,0,0-.236-.1H10.718V1.014a.4.4,0,0,0-.1-.279,2.014,2.014,0,0,0-2.457,0,1.277,1.277,0,0,1-1.582,0A.358.358,0,0,0,6.208.7a.335.335,0,0,0-.2.314V3.105a.321.321,0,0,0,.135.279,1.964,1.964,0,0,0,2.423,0,1.3,1.3,0,0,1,1.481-.078V4.848H7.015a.361.361,0,0,0-.3.244.326.326,0,0,0,.067.383,5.388,5.388,0,0,1,1.582,3.8A5.654,5.654,0,0,1,6.78,13.317a.39.39,0,0,0-.067.383.3.3,0,0,0,.3.209H9.372V16H8.025a2.062,2.062,0,0,1-2.02-2.091.366.366,0,0,0-.3-.349l-3.063-.4V11.818H3.986a.6.6,0,0,0,.3-.139c1.515-2.335,1.346-3.206,0-5.611a.351.351,0,0,0-.3-.174H2.64V4.5A.324.324,0,0,0,2.3,4.151a.324.324,0,0,0-.337.349V5.893H.62a.351.351,0,0,0-.3.174.326.326,0,0,0,0,.349C1.5,8.647,1.7,9.135.317,11.3a.326.326,0,0,0,0,.349.351.351,0,0,0,.3.174H1.967v1.259L.317,12.864a.36.36,0,0,0-.3.139.425.425,0,0,0-.034.349l.673,1.743a.309.309,0,0,0,.2.209l.842.279L3.01,19.591a.326.326,0,0,0,.3.244H5.534l.572.593a.3.3,0,0,0,.236.1h7.069A5.134,5.134,0,0,0,18.46,15.3h1.346a.349.349,0,0,0,0-.7Zm-3.1-6.274h1.919c1.111,2.056,1.212,2.649,0,4.531H16.709C17.82,10.982,17.618,10.111,16.709,8.333ZM8.16,2.826a1.288,1.288,0,0,1-1.481.1V1.606a2.035,2.035,0,0,0,1.885-.314,1.288,1.288,0,0,1,1.481-.1V2.513A2.035,2.035,0,0,0,8.16,2.826Zm-4.376,8.3H2.951C3.99,9.348,3.871,8.43,2.892,6.59h.892C4.895,8.647,5,9.239,3.784,11.121ZM1.192,6.59h.9c.97,1.845,1.2,2.463.311,4.041-.09.154-.19.316-.3.49H1.226C2.337,9.239,2.135,8.368,1.192,6.59ZM14.421,9.274a5.607,5.607,0,0,1-1.481,3.938H11.81a6.476,6.476,0,0,0,1.264-3.938A6.023,6.023,0,0,0,11.82,5.545H12.94A5.559,5.559,0,0,1,14.421,9.274Zm-3.5-3.729a5.7,5.7,0,0,1,0,7.668H9.776a6.424,6.424,0,0,0,1.279-3.973A6.015,6.015,0,0,0,9.809,5.545ZM7.756,13.212A6.424,6.424,0,0,0,9.035,9.239,6.014,6.014,0,0,0,7.79,5.545H8.87a5.4,5.4,0,0,1,1.512,3.729A5.655,5.655,0,0,1,8.9,13.212Zm2.289.7h.673V16h-.673Zm3.366,5.925H6.477L5.9,19.242a.3.3,0,0,0-.236-.1H3.549L2.3,15.2a.309.309,0,0,0-.2-.209l-.875-.314-.4-1.046,4.51.593A2.76,2.76,0,0,0,8.025,16.7h5.386A1.709,1.709,0,0,0,15.06,15.3h2.726a4.447,4.447,0,0,1-4.376,4.531Z" transform="translate(0.042 -0.317)" fill="#ebebeb"/>
  </g>
</svg>
