<svg xmlns="http://www.w3.org/2000/svg" width="60.755" height="20.118" viewBox="0 0 60.755 20.118">
  <path id="path26" d="M53.68,89.1c-.03-.034-1.2-.752-2.61-1.6l-2.556-1.534-1.558-1.554L45.4,82.868V69.053h6.518l1.591,1.6,1.591,1.6h14.27l.05-.13a21.737,21.737,0,0,0,0-2.961.051.051,0,0,1-.051-.051c0-.034,2-.051,5.891-.051h5.891V72.22l1.533.013,1.533.013V73c0,.77.019.915.117.915a10.172,10.172,0,0,0,.9-.836l.841-.836h3.49L91.1,70.7c.85-.85,1.534-1.563,1.52-1.583s1.457-.044,3.268-.051l3.294-.013-.014,1.525a7.817,7.817,0,0,0,.044,1.6,7.375,7.375,0,0,0,1.941.071h1.882l1.517,1.517c.834.834,1.535,1.506,1.558,1.492s.041,2.336.041,5.222c0,3.48-.016,5.247-.051,5.247-.088,0-5.119,3.376-5.084,3.412.019.019-.751.034-1.71.034H97.565v-.848c0-.743-.01-.85-.082-.864a21.1,21.1,0,0,0-2.389,1.681c.016.017-.686.029-1.561.027s-1.569-.014-1.541-.025a5.758,5.758,0,0,0-.067-1.682,13.032,13.032,0,0,0-1.7,1.669c.014.023-1.245.042-2.8.042s-2.808-.016-2.788-.036a12.969,12.969,0,0,0-1.7-1.687c-.049,0-.089.01-.089.023s-.07.36-.156.773-.159.79-.163.838c-.006.083-.159.089-2.437.089-1.336,0-2.416-.014-2.4-.031a17.279,17.279,0,0,0-1.948-1.691c-.069,0-.09.072-.116.392-.016.216-.048.592-.07.835-.025.293-.02.45.014.465s-1.186.024-2.7.026-2.742-.013-2.73-.034a10.149,10.149,0,0,0-.211-1.647.09.09,0,0,0-.105-.014c-.084.052-1.375,1.548-1.406,1.629a31.487,31.487,0,0,1-4.253.07c-2.324,0-4.226-.019-4.226-.042a8.383,8.383,0,0,0-1.7-.649c-.069.027-.081.091-.067.362l.017.329-2.23,0a13.761,13.761,0,0,1-2.284-.063Zm.074-4.412a12.1,12.1,0,0,0,.044-1.964l-.013-1.894-1.545-.025-1.545-.026V77.49l1.5-.013a5.534,5.534,0,0,0,1.559-.082,12.388,12.388,0,0,0,.044-1.963l-.013-1.894-1.545-.025-1.545-.025-.025-1.545L50.643,70.4h-3.9l-.013,5.928-.013,5.928,1.254,1.255,1.254,1.255H51.46a10.555,10.555,0,0,0,2.294-.069ZM68.2,83.521l1.244-1.241L69.457,78c.008-2.925,0-4.316-.04-4.384-.052-.1-.116-.1-1.977-.1-1.058,0-1.929.006-1.936.013s-.024,1.643-.038,3.636l-.026,3.623H64.275l-.026-3.623c-.014-1.993-.031-3.629-.038-3.636s-.89-.013-1.963-.013-1.956.006-1.963.013-.024,1.643-.038,3.636l-.026,3.623H59.055l-.025-3.623L59,73.537H55.1l-.013,5.549c-.007,3.052,0,5.577.011,5.612.019.05,1.254.063,5.939.063h5.915Zm6.374,1.2c.051-.032.061-1.188.051-5.611l-.012-5.571h-3.9L70.7,79.08c-.01,4.054,0,5.562.044,5.612a7.681,7.681,0,0,0,1.913.068c1.021,0,1.885-.019,1.92-.041Zm8.368-.027a12.093,12.093,0,0,0,.044-1.964l-.012-1.894-1.545-.025-1.545-.026V77.49l1.5-.013a5.534,5.534,0,0,0,1.559-.082,12.4,12.4,0,0,0,.044-1.963l-.012-1.894-1.546-.025-1.545-.025-.025-1.545L79.832,70.4h-3.9l-.012,5.953L75.906,82.3l1.232,1.229,1.232,1.229h2.258a10.743,10.743,0,0,0,2.316-.069Zm9.729,0a12.094,12.094,0,0,0,.044-1.964L92.7,80.834l-2.23-.025-2.23-.026-.014-1.659-.014-1.659h2.2a10.235,10.235,0,0,0,2.256-.069,12.094,12.094,0,0,0,.044-1.964L92.7,73.537l-3.012-.013-3.012-.013L85.5,74.686a16.954,16.954,0,0,0-1.233,1.306c-.037.09-.05,1.1-.04,3.21l.014,3.079,1.244,1.241,1.244,1.241h2.943a17.4,17.4,0,0,0,3-.069Zm5.215.008a34.131,34.131,0,0,0,.061-3.649V77.463l1.482.013,1.482.013.025,3.623.025,3.623,1.894.013a12.1,12.1,0,0,0,1.964-.044,35.783,35.783,0,0,0,.069-4.394V75.974l-1.227-1.231-1.227-1.231L100.2,73.5l-2.231-.013L97.955,72a8.956,8.956,0,0,0-.07-1.558,8.246,8.246,0,0,0-1.948-.068c-1.819,0-1.894,0-1.945.1-.073.137-.073,14.058,0,14.195.05.094.126.1,1.941.1a10.608,10.608,0,0,0,1.949-.061ZM74.611,71.308V70.4l-1.922-.013a8.957,8.957,0,0,0-1.963.051,10.866,10.866,0,0,0-.008,1.779c.019.019.9.028,1.964.021l1.929-.013Z" transform="translate(-45.399 -69.052)" fill="#e6e6e6"/>
</svg>
