<svg xmlns="http://www.w3.org/2000/svg" width="23.254" height="26.445" viewBox="0 0 23.254 26.445">
  <g id="layer1" transform="translate(-91.068 -126.423)">
    <g id="g66" transform="translate(91.068 126.423)">
      <g id="g168">
        <path id="path151" d="M82.595,148.716V147.47l-2.44-.092-2.44-.092-.083-9.593c-.079-9.05-.045-9.723.6-11.885l.68-2.291h21.946v15.593l-4.176,4.167L92.5,147.443H90.132c-2.352,0-2.382.011-3.6,1.259-1.058,1.083-1.419,1.259-2.583,1.259H82.595Z" transform="translate(-77.601 -123.516)" fill="#9147ff"/>
        <path id="path153" d="M91,142.093h2.99l1.808-1.827,1.808-1.827-.086-5.808-.086-5.808H80.122l-.084,7.635-.084,7.635H85v2.967l1.506-1.484,1.506-1.484Z" transform="translate(-77.155 -122.888)" fill="#fff"/>
        <g id="g161" transform="translate(7.366 7.792)">
          <path id="path157" d="M107.419,133.39v-3.325h2.541l-.09,3.227-.09,3.227-1.181.1-1.181.1Z" transform="translate(-101.438 -130.065)" fill="#9147ff"/>
          <path id="path155" d="M102.6,136.467a14.842,14.842,0,0,1-.21-3.306v-3.1h2.519v6.611h-1.049a2.716,2.716,0,0,1-1.259-.21Z" transform="translate(-102.393 -130.065)" fill="#9147ff"/>
        </g>
      </g>
    </g>
  </g>
</svg>
