<svg xmlns="http://www.w3.org/2000/svg" xmlns:xlink="http://www.w3.org/1999/xlink" width="99.821" height="26.047" viewBox="0 0 99.821 26.047">
  <defs>
    <clipPath id="clip-path">
      <path id="path96" d="M0-26.047H99.821V0H0Z" transform="translate(0 26.047)"/>
    </clipPath>
  </defs>
  <g id="g94" clip-path="url(#clip-path)">
    <g id="g100" transform="translate(1.872 2.14)">
      <path id="path102" d="M0,0H-24.784a2.207,2.207,0,0,1-2.207-2.207V-18.3a2.207,2.207,0,0,1,2.207-2.207H0A2.207,2.207,0,0,1,2.207-18.3v16.1A2.207,2.207,0,0,1,0,0" transform="translate(26.991 20.511)" fill="#f9f9f9"/>
    </g>
    <g id="g104" transform="translate(13.454 8.173)">
      <path id="path106" d="M0,0V-8.808L8.566-4.5Z" transform="translate(0 8.808)" fill="red"/>
    </g>
    <g id="g108" transform="translate(34.198 3.493)">
      <path id="path110" d="M0,0H-2.811c-.019-.164-.049-.316-.051-.469-.007-.5-.034-1.008,0-1.508a19.739,19.739,0,0,0-1-7.408c-.773-2.452-1.391-4.953-2.075-7.432-.074-.267-.138-.538-.226-.881.909,0,1.749-.019,2.587.019.13.006.327.253.362.417.569,2.673,1.117,5.35,1.671,8.027a.288.288,0,0,0,.155.207c.108-.542.21-1.085.326-1.625.469-2.181.951-4.359,1.4-6.544.081-.389.23-.528.633-.511.76.033,1.522.009,2.364.009-.355,1.284-.689,2.5-1.029,3.714C1.6-11.431.872-8.878.17-6.32A4.743,4.743,0,0,0,.007-5.136C-.011-3.648,0-2.16,0-.672Z" transform="translate(6.163 17.71)"/>
    </g>
    <g id="g112" transform="translate(43.256 7.871)">
      <path id="path114" d="M0,0A1.026,1.026,0,0,1-1.026,1.026,1.026,1.026,0,0,1-2.051,0V-7.239A1.026,1.026,0,0,1-1.026-8.265,1.026,1.026,0,0,1,0-7.239ZM-1.026-10.437h0a3.8,3.8,0,0,0-3.8,3.8V-.6a3.8,3.8,0,0,0,3.8,3.8,3.8,3.8,0,0,0,3.8-3.8V-6.636a3.8,3.8,0,0,0-3.8-3.8" transform="translate(4.826 10.437)"/>
    </g>
    <g id="g116" transform="translate(67.628 8.173)">
      <path id="path118" d="M0,0V10.4l0,.007a2.366,2.366,0,0,1-.124.206,1.3,1.3,0,0,1-.965.6.843.843,0,0,1-.845-.241.246.246,0,0,1-.021-.033.785.785,0,0,1-.1-.389V0H-5.068V10.683a2.644,2.644,0,0,0,.194,1A2.68,2.68,0,0,0-4.1,12.789a2.837,2.837,0,0,0,2.534.241,3.753,3.753,0,0,0,1.327-.724,4.045,4.045,0,0,0,.724-.688v1.412H2.9V0Z" transform="translate(5.068)"/>
    </g>
    <g id="g120" transform="translate(52.426 8.293)">
      <path id="path122" d="M0,0V10.4l0,.007a2.358,2.358,0,0,1-.124.206,1.3,1.3,0,0,1-.965.6.843.843,0,0,1-.845-.241.256.256,0,0,1-.021-.033.785.785,0,0,1-.1-.389V0H-5.068V10.683a2.644,2.644,0,0,0,.194,1A2.68,2.68,0,0,0-4.1,12.789a2.838,2.838,0,0,0,2.534.241,3.753,3.753,0,0,0,1.327-.724,4.04,4.04,0,0,0,.724-.688v1.412H2.9V0Z" transform="translate(5.068)"/>
    </g>
    <g id="g124" transform="translate(59.786 3.467)">
      <path id="path126" d="M0,0H-8.687V2.292h2.9V17.736h2.9V2.292H0Z" transform="translate(8.687)"/>
    </g>
    <g id="g128" transform="translate(77.16 2.743)">
      <path id="path130" d="M0,0C0,.7-.567,1.75-1.267,1.75a1.246,1.246,0,0,1-1.146-.632V-6.418c.2-.57.639-1.123,1.146-1.123C-.567-7.541,0-6.491,0-5.791ZM1.8-8.895c-1.358-1.23-3.133-.61-4.212.612v-6.5h-2.9V3.68H-2.9l.332-1.115A3.5,3.5,0,0,0-.891,3.672C2.55,4.793,2.9.247,2.9-2c0-1.952.484-5.46-1.1-6.891" transform="translate(5.309 14.78)"/>
    </g>
    <g id="g132" transform="translate(86.571 7.931)">
      <path id="path134" d="M0,0A1.086,1.086,0,0,1,1.086,1.086v2.9H-1.086v-2.9A1.086,1.086,0,0,1,0,0M1.086,5.912H3.861V2.932C3.74-.724,2.386-1.93.567-1.93H-.688c-1.819,0-3.294,2.051-3.294,4.862V7.083c0,2.57,1.475,4.5,3.294,4.5H.567c1.761,0,3.2-1.357,3.289-4.1H1.086V8.566A1.086,1.086,0,0,1,0,9.652,1.086,1.086,0,0,1-1.086,8.566V5.912Z" transform="translate(3.982 1.93)"/>
    </g>
  </g>
</svg>
